<mxfile host="app.diagrams.net" modified="2022-02-24T22:54:51.868Z" agent="5.0 (Windows NT 10.0; Win64; x64) AppleWebKit/537.36 (KHTML, like Gecko) Chrome/98.0.4758.102 Safari/537.36" etag="3YchBoSpoX7sUMAtXbUc" version="16.6.3" type="github">
  <diagram id="C5RBs43oDa-KdzZeNtuy" name="Page-1">
    <mxGraphModel dx="1338" dy="875" grid="1" gridSize="10" guides="1" tooltips="1" connect="1" arrows="1" fold="1" page="1" pageScale="1" pageWidth="1169" pageHeight="827" math="0" shadow="0">
      <root>
        <mxCell id="WIyWlLk6GJQsqaUBKTNV-0" />
        <mxCell id="WIyWlLk6GJQsqaUBKTNV-1" parent="WIyWlLk6GJQsqaUBKTNV-0" />
        <mxCell id="iV5XZEpkCTgE6erMggvK-1" value="Lobby" style="rounded=1;whiteSpace=wrap;html=1;" vertex="1" parent="WIyWlLk6GJQsqaUBKTNV-1">
          <mxGeometry x="40" y="80" width="120" height="60" as="geometry" />
        </mxCell>
        <mxCell id="iV5XZEpkCTgE6erMggvK-50" style="edgeStyle=orthogonalEdgeStyle;rounded=0;orthogonalLoop=1;jettySize=auto;html=1;exitX=0.5;exitY=1;exitDx=0;exitDy=0;entryX=0;entryY=0;entryDx=0;entryDy=0;" edge="1" parent="WIyWlLk6GJQsqaUBKTNV-1" source="iV5XZEpkCTgE6erMggvK-2" target="iV5XZEpkCTgE6erMggvK-49">
          <mxGeometry relative="1" as="geometry" />
        </mxCell>
        <mxCell id="iV5XZEpkCTgE6erMggvK-2" value="LocalManager" style="rounded=1;whiteSpace=wrap;html=1;" vertex="1" parent="WIyWlLk6GJQsqaUBKTNV-1">
          <mxGeometry x="240" y="178" width="120" height="60" as="geometry" />
        </mxCell>
        <mxCell id="iV5XZEpkCTgE6erMggvK-51" style="edgeStyle=orthogonalEdgeStyle;rounded=0;orthogonalLoop=1;jettySize=auto;html=1;exitX=0.5;exitY=1;exitDx=0;exitDy=0;entryX=0.5;entryY=0;entryDx=0;entryDy=0;" edge="1" parent="WIyWlLk6GJQsqaUBKTNV-1" source="iV5XZEpkCTgE6erMggvK-3" target="iV5XZEpkCTgE6erMggvK-49">
          <mxGeometry relative="1" as="geometry" />
        </mxCell>
        <mxCell id="iV5XZEpkCTgE6erMggvK-3" value="TrainingManager" style="rounded=1;whiteSpace=wrap;html=1;" vertex="1" parent="WIyWlLk6GJQsqaUBKTNV-1">
          <mxGeometry x="480" y="178" width="120" height="60" as="geometry" />
        </mxCell>
        <mxCell id="iV5XZEpkCTgE6erMggvK-53" style="edgeStyle=orthogonalEdgeStyle;rounded=0;orthogonalLoop=1;jettySize=auto;html=1;exitX=0.5;exitY=1;exitDx=0;exitDy=0;" edge="1" parent="WIyWlLk6GJQsqaUBKTNV-1" source="iV5XZEpkCTgE6erMggvK-4">
          <mxGeometry relative="1" as="geometry">
            <mxPoint x="650" y="370" as="targetPoint" />
          </mxGeometry>
        </mxCell>
        <mxCell id="iV5XZEpkCTgE6erMggvK-4" value="SyncTestManager" style="rounded=1;whiteSpace=wrap;html=1;" vertex="1" parent="WIyWlLk6GJQsqaUBKTNV-1">
          <mxGeometry x="720" y="178" width="120" height="60" as="geometry" />
        </mxCell>
        <mxCell id="iV5XZEpkCTgE6erMggvK-54" style="edgeStyle=orthogonalEdgeStyle;rounded=0;orthogonalLoop=1;jettySize=auto;html=1;exitX=0.5;exitY=1;exitDx=0;exitDy=0;entryX=1;entryY=0;entryDx=0;entryDy=0;" edge="1" parent="WIyWlLk6GJQsqaUBKTNV-1" source="iV5XZEpkCTgE6erMggvK-5" target="iV5XZEpkCTgE6erMggvK-49">
          <mxGeometry relative="1" as="geometry" />
        </mxCell>
        <mxCell id="iV5XZEpkCTgE6erMggvK-5" value="GGRSManager" style="rounded=1;whiteSpace=wrap;html=1;" vertex="1" parent="WIyWlLk6GJQsqaUBKTNV-1">
          <mxGeometry x="960" y="178" width="120" height="60" as="geometry" />
        </mxCell>
        <mxCell id="iV5XZEpkCTgE6erMggvK-6" value="CharSelect" style="rounded=1;whiteSpace=wrap;html=1;" vertex="1" parent="WIyWlLk6GJQsqaUBKTNV-1">
          <mxGeometry x="450" y="588" width="120" height="60" as="geometry" />
        </mxCell>
        <mxCell id="iV5XZEpkCTgE6erMggvK-74" style="edgeStyle=orthogonalEdgeStyle;rounded=0;orthogonalLoop=1;jettySize=auto;html=1;exitX=1;exitY=0.5;exitDx=0;exitDy=0;entryX=0;entryY=0.5;entryDx=0;entryDy=0;" edge="1" parent="WIyWlLk6GJQsqaUBKTNV-1" source="iV5XZEpkCTgE6erMggvK-7" target="iV5XZEpkCTgE6erMggvK-60">
          <mxGeometry relative="1" as="geometry" />
        </mxCell>
        <mxCell id="iV5XZEpkCTgE6erMggvK-75" style="edgeStyle=orthogonalEdgeStyle;rounded=0;orthogonalLoop=1;jettySize=auto;html=1;exitX=1;exitY=0.5;exitDx=0;exitDy=0;entryX=0;entryY=0.5;entryDx=0;entryDy=0;" edge="1" parent="WIyWlLk6GJQsqaUBKTNV-1" source="iV5XZEpkCTgE6erMggvK-7" target="iV5XZEpkCTgE6erMggvK-63">
          <mxGeometry relative="1" as="geometry" />
        </mxCell>
        <mxCell id="iV5XZEpkCTgE6erMggvK-76" style="edgeStyle=orthogonalEdgeStyle;rounded=0;orthogonalLoop=1;jettySize=auto;html=1;exitX=1;exitY=0.5;exitDx=0;exitDy=0;entryX=0;entryY=0.5;entryDx=0;entryDy=0;" edge="1" parent="WIyWlLk6GJQsqaUBKTNV-1" source="iV5XZEpkCTgE6erMggvK-7" target="iV5XZEpkCTgE6erMggvK-64">
          <mxGeometry relative="1" as="geometry" />
        </mxCell>
        <mxCell id="iV5XZEpkCTgE6erMggvK-77" style="edgeStyle=orthogonalEdgeStyle;rounded=0;orthogonalLoop=1;jettySize=auto;html=1;exitX=1;exitY=0.5;exitDx=0;exitDy=0;entryX=0;entryY=0.5;entryDx=0;entryDy=0;" edge="1" parent="WIyWlLk6GJQsqaUBKTNV-1" source="iV5XZEpkCTgE6erMggvK-7" target="iV5XZEpkCTgE6erMggvK-61">
          <mxGeometry relative="1" as="geometry" />
        </mxCell>
        <mxCell id="iV5XZEpkCTgE6erMggvK-78" style="edgeStyle=orthogonalEdgeStyle;rounded=0;orthogonalLoop=1;jettySize=auto;html=1;exitX=1;exitY=0.5;exitDx=0;exitDy=0;entryX=0;entryY=0.5;entryDx=0;entryDy=0;" edge="1" parent="WIyWlLk6GJQsqaUBKTNV-1" source="iV5XZEpkCTgE6erMggvK-7" target="iV5XZEpkCTgE6erMggvK-72">
          <mxGeometry relative="1" as="geometry" />
        </mxCell>
        <mxCell id="iV5XZEpkCTgE6erMggvK-7" value="GameScene" style="rounded=1;whiteSpace=wrap;html=1;" vertex="1" parent="WIyWlLk6GJQsqaUBKTNV-1">
          <mxGeometry x="730" y="588" width="120" height="60" as="geometry" />
        </mxCell>
        <mxCell id="iV5XZEpkCTgE6erMggvK-8" value="" style="curved=1;endArrow=classic;html=1;rounded=0;exitX=1;exitY=0.5;exitDx=0;exitDy=0;entryX=0.5;entryY=0;entryDx=0;entryDy=0;" edge="1" parent="WIyWlLk6GJQsqaUBKTNV-1" source="iV5XZEpkCTgE6erMggvK-1" target="iV5XZEpkCTgE6erMggvK-2">
          <mxGeometry width="50" height="50" relative="1" as="geometry">
            <mxPoint x="390" y="260" as="sourcePoint" />
            <mxPoint x="440" y="210" as="targetPoint" />
            <Array as="points">
              <mxPoint x="180" y="10" />
            </Array>
          </mxGeometry>
        </mxCell>
        <mxCell id="iV5XZEpkCTgE6erMggvK-9" value="" style="curved=1;endArrow=classic;html=1;rounded=0;exitX=1;exitY=0.5;exitDx=0;exitDy=0;entryX=0.5;entryY=0;entryDx=0;entryDy=0;" edge="1" parent="WIyWlLk6GJQsqaUBKTNV-1" source="iV5XZEpkCTgE6erMggvK-1" target="iV5XZEpkCTgE6erMggvK-3">
          <mxGeometry width="50" height="50" relative="1" as="geometry">
            <mxPoint x="170" y="120" as="sourcePoint" />
            <mxPoint x="270" y="90" as="targetPoint" />
            <Array as="points">
              <mxPoint x="190" y="20" />
            </Array>
          </mxGeometry>
        </mxCell>
        <mxCell id="iV5XZEpkCTgE6erMggvK-10" value="" style="curved=1;endArrow=classic;html=1;rounded=0;exitX=1;exitY=0.5;exitDx=0;exitDy=0;entryX=0.5;entryY=0;entryDx=0;entryDy=0;" edge="1" parent="WIyWlLk6GJQsqaUBKTNV-1" source="iV5XZEpkCTgE6erMggvK-1" target="iV5XZEpkCTgE6erMggvK-4">
          <mxGeometry width="50" height="50" relative="1" as="geometry">
            <mxPoint x="170" y="120" as="sourcePoint" />
            <mxPoint x="430" y="90" as="targetPoint" />
            <Array as="points">
              <mxPoint x="200" y="30" />
            </Array>
          </mxGeometry>
        </mxCell>
        <mxCell id="iV5XZEpkCTgE6erMggvK-11" value="" style="curved=1;endArrow=classic;html=1;rounded=0;exitX=1;exitY=0.5;exitDx=0;exitDy=0;entryX=0.5;entryY=0;entryDx=0;entryDy=0;" edge="1" parent="WIyWlLk6GJQsqaUBKTNV-1" source="iV5XZEpkCTgE6erMggvK-1" target="iV5XZEpkCTgE6erMggvK-5">
          <mxGeometry width="50" height="50" relative="1" as="geometry">
            <mxPoint x="170" y="120" as="sourcePoint" />
            <mxPoint x="590" y="90" as="targetPoint" />
            <Array as="points">
              <mxPoint x="210" y="40" />
            </Array>
          </mxGeometry>
        </mxCell>
        <mxCell id="iV5XZEpkCTgE6erMggvK-44" value="Saves state from &lt;i&gt;n &lt;/i&gt;frames ago, rolls back every frame" style="text;html=1;strokeColor=none;fillColor=none;align=center;verticalAlign=middle;whiteSpace=wrap;rounded=0;" vertex="1" parent="WIyWlLk6GJQsqaUBKTNV-1">
          <mxGeometry x="710" y="80" width="110" height="30" as="geometry" />
        </mxCell>
        <mxCell id="iV5XZEpkCTgE6erMggvK-45" value="Connects with the GGRS node for all management of inputs and state" style="text;html=1;strokeColor=none;fillColor=none;align=center;verticalAlign=middle;whiteSpace=wrap;rounded=0;" vertex="1" parent="WIyWlLk6GJQsqaUBKTNV-1">
          <mxGeometry x="960" y="80" width="110" height="30" as="geometry" />
        </mxCell>
        <mxCell id="iV5XZEpkCTgE6erMggvK-46" value="Allows user the option to store and playback P2 inputs.&amp;nbsp; Reset button&amp;nbsp;" style="text;html=1;strokeColor=none;fillColor=none;align=center;verticalAlign=middle;whiteSpace=wrap;rounded=0;" vertex="1" parent="WIyWlLk6GJQsqaUBKTNV-1">
          <mxGeometry x="485" y="60" width="110" height="30" as="geometry" />
        </mxCell>
        <mxCell id="iV5XZEpkCTgE6erMggvK-47" value="Just send inputs to players" style="text;html=1;strokeColor=none;fillColor=none;align=center;verticalAlign=middle;whiteSpace=wrap;rounded=0;" vertex="1" parent="WIyWlLk6GJQsqaUBKTNV-1">
          <mxGeometry x="300" y="130" width="60" height="30" as="geometry" />
        </mxCell>
        <mxCell id="iV5XZEpkCTgE6erMggvK-57" style="edgeStyle=orthogonalEdgeStyle;rounded=0;orthogonalLoop=1;jettySize=auto;html=1;exitX=0;exitY=1;exitDx=0;exitDy=0;entryX=0.5;entryY=0;entryDx=0;entryDy=0;" edge="1" parent="WIyWlLk6GJQsqaUBKTNV-1" source="iV5XZEpkCTgE6erMggvK-49" target="iV5XZEpkCTgE6erMggvK-6">
          <mxGeometry relative="1" as="geometry" />
        </mxCell>
        <mxCell id="iV5XZEpkCTgE6erMggvK-58" style="edgeStyle=orthogonalEdgeStyle;rounded=0;orthogonalLoop=1;jettySize=auto;html=1;exitX=1;exitY=1;exitDx=0;exitDy=0;entryX=0.5;entryY=0;entryDx=0;entryDy=0;" edge="1" parent="WIyWlLk6GJQsqaUBKTNV-1" source="iV5XZEpkCTgE6erMggvK-49" target="iV5XZEpkCTgE6erMggvK-7">
          <mxGeometry relative="1" as="geometry" />
        </mxCell>
        <mxCell id="iV5XZEpkCTgE6erMggvK-49" value="SaveState(), LoadState(), AdvanceFrame(), DrawBoxes(), Configure()" style="ellipse;whiteSpace=wrap;html=1;" vertex="1" parent="WIyWlLk6GJQsqaUBKTNV-1">
          <mxGeometry x="450" y="370" width="400" height="80" as="geometry" />
        </mxCell>
        <mxCell id="iV5XZEpkCTgE6erMggvK-60" value="Background" style="rounded=1;whiteSpace=wrap;html=1;" vertex="1" parent="WIyWlLk6GJQsqaUBKTNV-1">
          <mxGeometry x="920" y="400" width="120" height="60" as="geometry" />
        </mxCell>
        <mxCell id="iV5XZEpkCTgE6erMggvK-61" value="GFX" style="rounded=1;whiteSpace=wrap;html=1;" vertex="1" parent="WIyWlLk6GJQsqaUBKTNV-1">
          <mxGeometry x="920" y="640" width="120" height="60" as="geometry" />
        </mxCell>
        <mxCell id="iV5XZEpkCTgE6erMggvK-63" value="Players" style="rounded=1;whiteSpace=wrap;html=1;" vertex="1" parent="WIyWlLk6GJQsqaUBKTNV-1">
          <mxGeometry x="920" y="480" width="120" height="60" as="geometry" />
        </mxCell>
        <mxCell id="iV5XZEpkCTgE6erMggvK-64" value="Hadoukens" style="rounded=1;whiteSpace=wrap;html=1;" vertex="1" parent="WIyWlLk6GJQsqaUBKTNV-1">
          <mxGeometry x="920" y="560" width="120" height="60" as="geometry" />
        </mxCell>
        <mxCell id="iV5XZEpkCTgE6erMggvK-71" value="Contains &lt;i&gt;frame&lt;/i&gt;&amp;nbsp;counter, otherwise retrieves state information from Players and Hadoukens" style="text;html=1;strokeColor=none;fillColor=none;align=center;verticalAlign=middle;whiteSpace=wrap;rounded=0;" vertex="1" parent="WIyWlLk6GJQsqaUBKTNV-1">
          <mxGeometry x="660" y="670" width="170" height="80" as="geometry" />
        </mxCell>
        <mxCell id="iV5XZEpkCTgE6erMggvK-72" value="HUD" style="rounded=1;whiteSpace=wrap;html=1;" vertex="1" parent="WIyWlLk6GJQsqaUBKTNV-1">
          <mxGeometry x="920" y="720" width="120" height="60" as="geometry" />
        </mxCell>
      </root>
    </mxGraphModel>
  </diagram>
</mxfile>
